<svg xmlns="http://www.w3.org/2000/svg" fill="none" viewBox="0 0 24 23">
  <path fill="#002522" d="M21.0854 1.99008v.02369c0 .0158.0158.02369.0473.02369h-.0473v-.04738ZM7.53387 10.5664c.0158.0158.02369.0395.02369.071.0158.0158.03949.0237.07108.0237-.0158-.0158-.03159-.0237-.04739-.0237 0-.0157-.01579-.0394-.04738-.071ZM3.98016 3.12727c.01579 0 .02369-.0079.02369-.02369.01579-.0158.03949-.0237.07107-.0237 0 .0158.0079.03159.0237.04739h.02369-.14215Zm-2.22699-.94766v.02369-.11845.09476ZM.426446 7.96032c0 .01579-.007898.03159-.023692.04738H.379063l.047383-.04738c0-.0158.007897-.03159.023691-.04739.015794-.03158.023691-.06317.023691-.09476-.015794 0-.031588.01579-.047382.04738v.09477ZM10.8507 6.49145c.0158 0 .0316-.0079.0474-.02369.0315-.0158.0631-.03949.0947-.07108h.0237c.0158 0 .0237-.01579.0237-.04738-.0158.0158-.0395.03949-.0711.07108-.0158.01579-.0395.03948-.071.07107h-.0237c-.0158 0-.0395.01579-.0711.04738.0158 0 .0237-.00789.0237-.02369.0158-.01579.0237-.02369.0237-.02369Zm.4264-.37906v-.09477c0-.01579.0079-.03159.0237-.04738.0158-.03159.0237-.06318.0237-.09477l.0474-.09476h.0474c-.0158.01579-.0316.03948-.0474.07107v.11846c0 .01579-.0079.03948-.0237.07107-.0158.0158-.0395.03949-.0711.07108Zm.1422-.52121v.09476-.09476c0-.0158 0-.0158 0 0Zm.0473.09476h.0237-.0237c.0158 0 .0158 0 0 0v.04738-.04738ZM22.8385 13.741v.0237-.0237c-.0158.0158-.0316.0395-.0474.0711 0 .0158-.0157.0395-.0473.0711.0158-.0158.0237-.0316.0237-.0474.0157-.0316.0394-.0632.071-.0948.3475-.6791.6634-1.611.9477-2.7956.3001-1.20033.2843-2.3849-.0474-3.55368v-.09476c-.0158-.0158-.0316-.03159-.0474-.04738v-.14215l-.0237-.0237c-.0158-.01579-.0237-.02369-.0237-.02369 0 .0158-.0394.15795-.1184.42645-.079.2685-.1817.61598-.308 1.04242.0632-.63177.0632-1.27933 0-1.94269-.0474-.67916-.1895-1.32672-.4265-1.9427-.1105-.30009-.229-.5686-.3553-.80551-.1264-.25271-.2606-.47383-.4028-.66336-.1579-.2843-.3317-.52911-.5212-.73443-.1737-.20533-.3317-.35537-.4738-.45014l.0474.04738c-.0158-.01579-.0316-.02369-.0474-.02369v-.02369c0 .01579.0079.05528.0237.11846.0158.04738.0395.13425.071.2606-.3-.47383-.6317-.8292-.995-1.06611-.3633-.23692-.5844-.371167-.6634-.402756h-.0473s.0079.071074.0237.213226c.0315.14215.071.35537.1184.63967-.4738-.37907-1.0029-.71864-1.5873-1.018736C17.3974.434343 16.7735.189531 16.1102 0c1.1056.726537 1.9032 1.40569 2.3928 2.03746.5054.63177.8924 1.23196 1.1609 1.80055-.2843-.30009-.6555-.58439-1.1135-.85289-.4423-.2685-.8292-.42645-1.1609-.47383.2527.18953.5291.47383.8292.85289.3159.36327.6081.8213.8766 1.3741.2685.53701.4817 1.16088.6397 1.87163.1737.71074.2448 1.49256.2132 2.34545-.2369-.58439-.4818-1.00294-.7345-1.25565-.2369-.2685-.3553-.40275-.3553-.40275v.04738l-.0474-.04738c.0948.61597.15 1.15298.1658 1.61101.0158.45804.0237.8529.0237 1.18453v.8056c-.0474.2843-.0947.5291-.1421.7344-.0474.2053-.0948.4185-.1422.6397-.0632-.2843-.1263-.4976-.1895-.6397-.0632-.1422-.0948-.2132-.0948-.2132v.0473-.0473s-.0395.2448-.1184.7344c-.0632.4896-.2764 1.1135-.6397 1.8716-.0158.0632-.0474.1422-.0948.2369-.0473.079-.0947.158-.1421.237v.0236c0 .0158-.0158.0237-.0474.0237v.0474l-.0474.0474-.0474.0948v.0237c0 .0157-.0158.0236-.0473.0236v.0474l-.0474.0474c-.1422.158-.2685.2843-.3791.3791-.0948.0947-.1895.1579-.2843.1895-.0158.0158-.0395.0316-.0711.0474h-.071c-.0158 0-.0316-.0079-.0474-.0237 0-.0158-.0158-.0237-.0474-.0237.0158-.0632.0237-.1263.0237-.1895 0-.079-.0079-.1422-.0237-.1896l-.1185.0474c-.0631.0316-.1342.0948-.2132.1896-.0474.0473-.0869.0947-.1184.1421-.0316.0316-.0711.0632-.1185.0948l.0711-.0948.0711-.0948c-.0474.0158-.0948.0474-.1422.0948s-.0948.0948-.1421.1422c-.158.1579-.308.3158-.4502.4738-.1421.1579-.2606.2053-.3554.1421.0948-.0158.1659-.0631.2133-.1421.0474-.0948.0868-.1895.1184-.2843-.0632.0474-.1895.1263-.379.2369-.1896.1106-.4739.1895-.8529.2369-.158.0158-.537.0316-1.1372.0474-.6002.0158-1.3425-.1895-2.227-.616.1105-.0158.2527-.0316.4264-.0474.1738-.0316.3317 0 .4739.0948-.1422-.1579-.3633-.2448-.6634-.2606-.3001-.0158-.5686-.0711-.8055-.1658-.23692-.0632-.48173-.2133-.73444-.4502-.25271-.2527-.46593-.4501-.63967-.5923.58439.1422 1.16878.1896 1.75321.1422.5843-.0632 1.0898-.2053 1.5162-.4265.0158-.0158.0316-.0237.0474-.0237.0316-.0157.0632-.0394.0948-.071.0473-.0158.0868-.0316.1184-.0474.0316-.0316.0711-.0632.1185-.0948.2369-.1579.5054-.3396.8055-.5449.3159-.2053.5844-.3238.8055-.3553h.0474c.0316 0 .0631.0157.0947.0473.2054.0474.3554-.0079.4502-.1658.1105-.1737.0868-.3712-.0711-.5923-.1579-.1895-.4422-.3712-.8529-.5449-.3948-.1895-.8687-.229-1.4215-.1185-.4422.1106-.8766.2764-1.303.4976-.4107.2053-.92397.1816-1.53995-.0711-.04738 0-.08686-.0079-.11845-.0237-.03159-.0158-.07108-.0395-.11846-.0711-.01579-.0158.01579-.0158.09477 0 .07897.0158.11056.0158.09476 0-.11056-.0474-.25271-.1026-.42644-.1658-.17374-.079-.3001-.1343-.37907-.1659 0-.0157.03159-.0157.09477 0h.09476c-.11056-.0631-.21322-.1184-.30798-.1658-.09477-.0632-.18164-.1342-.26061-.2132h-.02369c-.0158 0-.02369-.0158-.02369-.0474 0 0-.0079-.0079-.02369-.0237l-.0237-.0237c-.01579-.0158-.03948-.0316-.07107-.0474-.01579-.0316-.02369-.0473-.02369-.0473s-.0079-.0079-.02369-.0237c-.0158-.0158-.02369-.0237-.02369-.0237-.18954-.2369-.2843-.4581-.2843-.6634.01579-.22111.04738-.39485.09476-.5212.0158-.11056.06318-.21322.14215-.30799.07897-.09476.14215-.16584.18953-.21322h.04739c.09476.01579.16584.03948.21322.07107.04738.0158.07107.02369.07107.02369l-.04738-.04738c-.03159-.03159-.06318-.06317-.09476-.09476h.02369c.01579 0 .02369-.0158.02369-.04739.06318.0158.15004.05528.2606.11846.12636.04738.22902.08687.30799.11846.11056.04738.18953.10266.23692.16584.06317.04738.09476.07107.09476.07107v-.02369c.0158-.03159.0158-.07107 0-.11846-.01579-.01579-.04738-.05528-.09476-.11845-.03159-.06318-.11056-.11846-.23692-.16584.06318.01579.11846.03948.16584.07107.06318.01579.13425.03949.21323.07107.01579-.09476.03158-.18953.04738-.28429.01579-.11056.01579-.25271 0-.42645-.0158-.11056-.02369-.18953-.02369-.23691 0-.04739-.02369-.09477-.07108-.14215-.01579-.01579-.01579-.03159 0-.04738.03159-.0158.06318-.0158.09477 0 0-.0158-.0079-.03159-.02369-.04739-.0158-.03159-.02369-.06317-.02369-.09476-.0158-.04739-.03159-.08687-.04739-.11846-.01579-.03159-.04738-.07107-.09476-.11846v-.02369c0-.01579-.0158-.02369-.04739-.02369l-.09476-.14215c-.0158-.01579-.03949-.03159-.07108-.04738-.01579-.03159-.02369-.06318-.02369-.09477.04739.09477.09477.18164.14215.26061.06318.06318.11056.11846.14215.16584.01579.01579.02369.03159.02369.04738h.07108c.04738-.06318.15004-.15004.30798-.2606.17374-.11056.37117-.22902.59229-.35537.04742-.0158.07902-.03159.09472-.04739.0316-.03159.0632-.06317.0948-.09476-.1105.06317-.2369.14215-.37905.23691-.12636.07897-.23692.15794-.33168.23691-.09477.06318-.17374.13426-.23692.21323-.06317.06318-.11056.11845-.14214.16584.18953-.20533.5449-.45804 1.06609-.75813.537-.30009.8924-.537 1.0661-.71074.0158-.01579.0316-.02369.0474-.02369.0316-.0158.0474-.03949.0474-.07108.0948-.06317.1658-.13425.2132-.21322.0474-.07897.0869-.16584.1185-.2606.0474-.09477.079-.22902.0947-.40276.0158-.18953-.0473-.32378-.1895-.40275-.0948-.0158-.1974-.03159-.308-.04739-.0947-.03158-.229-.04738-.4027-.04738H9.61872c-.34748 0-.62388-.11846-.8292-.35537-.18953-.25271-.32379-.45014-.40276-.59229.11056-.39485.2843-.76602.52121-1.11349.23692-.36327.52121-.68705.8529-.97135.01579 0-.0079.0079-.07108.02369-.06318 0-.08687-.0079-.07107-.02369.01579-.01579.07897-.05528.18953-.11846.12635-.07897.20535-.11845.23695-.11845.0158-.0158-.04742-.03949-.18957-.07108-.14215-.03159-.30009-.03948-.47383-.02369-.15794.04738-.2685.07897-.33168.09477-.06317.01579-.14215.06317-.23691.14214h-.04738c.04738-.04738.11056-.08686.18953-.11845.07897-.04739.11056-.07108.09476-.07108-.18953.04739-.38696.12636-.59228.23692-.20533.11056-.40276.23691-.59229.37906v-.14215c-.09476.04738-.22112.14215-.37906.2843-.14215.12635-.25271.25271-.33168.37906v-.14215l-.16584.16584c-.06318.06318-.11846.13425-.16584.21322-.15794-.01579-.32378-.03948-.49752-.07107-.15794-.04738-.30799-.07107-.45014-.07107h-.71074c-.18953 0-.37117.02369-.5449.07107-.15795.03159-.32379.07107-.49752.11846-.14215-.11056-.30009-.25271-.47383-.42645-.17374-.18953-.33168-.39485-.47383-.61597h-.04738v.04738c0 .01579 0 .01579 0 0-.09477-.15794-.18164-.36327-.26061-.61598-.07897-.25271-.11846-.47383-.11846-.663359v.047383-.047383s-.05528.05528-.16584.165839c-.11056.11056-.21322.32378-.30798.63967-.0158.01579-.03159.03949-.04739.07107v.16584-.09476c0-.03159.0158-.06318.04739-.09477V1.6584v.14215c-.0158.01579-.03159.03948-.04739.07107v.07108-.04739.04739-.09477l-.04738.09477v-.14215c0 .01579-.0079.03948-.02369.07107-.01579.0158-.03949.03949-.07107.07108 0 0 .01579-.0158.04738-.04739 0-.01579.0079-.03158.02369-.04738.01579-.03159.02369-.04738.02369-.04738v-.04738c0 .01579-.02369.05528-.07107.11845-.04739.06318-.07108.13425-.07108.21323-.01579.04738-.03159.08686-.04738.11845 0 .03159-.01579.07108-.04738.11846v-.04738c-.04739.09476-.09477.21322-.14215.35537-.03159.12635-.06318.2606-.09477.40275-.04738.15794-.08687.33958-.11845.5449-.0158.18954-.0237.41855-.0237.68706-.01579.23691-.02369.43434-.02369.59228.0158.15794.02369.26061.02369.30799.0158-.01579.0237-.02369.0237-.02369.01579-.0158.02369-.02369.02369-.02369s-.0079.00789-.02369.02369c-.0158.01579-.0237.02369-.0237.02369v-.04738c-.14214.20532-.2606.39485-.35537.56859-.09476.15794-.16584.2843-.21322.37906-.189532.33168-.371166.77392-.544903 1.32672C.292194 7.94452.142149 8.63947 0 9.47657c0 0 .0157943-.0158.0473828-.04738v.02369c0 .01579-.0157942.02369-.0473828.02369 0 0 .00789714-.0079.0236914-.02369.0157943-.03159.0394857-.08687.0710743-.16584v-.09477c.0473833-.11056.1026623-.25271.1658403-.42644.078971-.18954.181634-.37907.307988-.5686-.142148.44224-.260606 1.01873-.355371 1.72948-.078972.69499-.086869 1.55569-.023692 2.58239v.0474-.0948.0474s.007897-.0237.023692-.0711c.015794-.0632.023691-.1343.023691-.2132V12.13c.015794-.1106.039486-.2369.071074-.3791.031589-.1421.071075-.3.118458-.4738.015794.6792.134251 1.4294.355371 2.2507.221123.8213.592283 1.6979 1.113493 2.6297.20533.3475.49752.7977.87659 1.3505.39485.5528.92396 1.1135 1.58732 1.6821.66336.5685 1.48466 1.1134 2.46391 1.6347.97924.5054 2.14802.9081 3.50637 1.2082h-.0948.0948c-.1106-.0158-.2212-.0474-.33172-.0947-.09477-.0474-.18953-.0948-.2843-.1422 0 0-.01579-.0158-.04738-.0474-.09477-.0474-.16584-.0947-.21322-.1421-.04739-.0316-.08687-.0632-.11846-.0948.01579 0 .04738.0079.09476.0237.06318.0158.14215.0395.23692.0711.33168.0947.8055.2053 1.4215.3317.6318.1421 1.2319.2053 1.8005.1895h-.0947c-.0474 0-.0948-.0079-.1422-.0237-.0316-.0158-.0632-.0395-.0947-.0711-.0948-.0474-.158-.0947-.1896-.1421l-.0474-.0474h.1422c.1895 0 .5291-.0079 1.0187-.0237.4896 0 1.0424-.0474 1.6584-.1421.616-.0948 1.2478-.2449 1.8953-.4502.6476-.2053 1.2241-.5054 1.7295-.9003.2369-.1895.4343-.379.5923-.5686.1579-.2053.2606-.3948.308-.5685h-.0474s-.0237.0078-.0711.0236c-.0316.0158-.0711.0395-.1184.0711.0473-.0158.0789-.0316.0947-.0474.0316-.0316.0632-.0473.0948-.0473v-.0948h.0474v.0237c0 .0158-.0158.0237-.0474.0237v.0474c.1106-.0632.2211-.1264.3317-.1896.1263-.079.2527-.1579.379-.2369.1896-.1421.3949-.2922.616-.4501.2211-.1738.4423-.3712.6634-.5923.0158-.0474.0395-.0869.071-.1185.0474-.0316.0869-.071.1185-.1184v-.0474h.0474c.0158-.0158.0237-.0316.0237-.0474.0158-.0316.0395-.0632.0711-.0948h.0473c.0158-.0158.0316-.0394.0474-.071.0316-.0474.0632-.0869.0948-.1185.0948-.1106.1816-.2211.2606-.3317.0948-.1263.1658-.2527.2132-.379l.0474-.0474c.1421-.2369.2527-.4817.3317-.7345.0947-.2685.1421-.5606.1421-.8765 0 .0631-.0079.1342-.0237.2132-.0158.0632-.0395.1342-.071.2132l-.0237.0237-.0237.0237.0237-.0237c.0158-.0158.0395-.0395.071-.0711-.0158-.3317-.0394-.6002-.071-.8055-.0316-.2053-.0869-.3948-.1659-.5686Z"/>
</svg>
